<svg width="25" height="22" viewBox="0 0 25 22" fill="none" xmlns="http://www.w3.org/2000/svg">
<path d="M22.9561 6.22242C23.2266 5.41088 23.362 4.56961 23.362 3.69829C23.362 2.53639 23.1063 1.44458 22.5956 0.422974C21.5241 0.422974 20.5776 0.618465 19.7561 1.00898C18.935 1.39959 17.9985 2.00554 16.9472 2.82681C15.6252 2.50634 14.2225 2.34611 12.7405 2.34611C11.1178 2.34611 9.57025 2.5215 8.09799 2.87201C7.02639 2.03058 6.07987 1.41227 5.25854 1.01655C4.43721 0.620834 3.48575 0.423026 2.40394 0.423026C1.89314 1.44464 1.63776 2.53649 1.63776 3.69834C1.63776 4.57982 1.7729 5.43119 2.04338 6.25236C0.681037 7.84503 0 9.8281 0 12.2019C0 14.2855 0.310366 15.943 0.931467 17.1751C1.26209 17.8259 1.69265 18.4018 2.22355 18.9028C2.75425 19.4035 3.36025 19.8094 4.04139 20.12C4.72264 20.4302 5.40857 20.6883 6.09976 20.8935C6.7909 21.0987 7.55456 21.2491 8.39094 21.3439C9.22726 21.4394 9.96592 21.5019 10.6069 21.5322C11.2479 21.5619 11.9589 21.5771 12.7404 21.5771C13.6617 21.5771 14.4978 21.5543 15.2494 21.5096C16.0006 21.4646 16.8593 21.3542 17.826 21.1793C18.7925 21.0039 19.6439 20.7659 20.3802 20.4655C21.1164 20.1651 21.8227 19.7343 22.4988 19.1736C23.1748 18.6124 23.703 17.9465 24.0838 17.1752C24.6944 15.9331 25.0001 14.2753 25.0001 12.202C24.9997 9.8181 24.3186 7.82498 22.9561 6.22242ZM21.1539 17.1522C20.8333 17.8085 20.4276 18.3239 19.9369 18.6998C19.446 19.0755 18.8351 19.3759 18.104 19.6015C17.3726 19.8268 16.6718 19.9745 16.0006 20.0443C15.3293 20.1145 14.5834 20.1495 13.7618 20.1495H11.2377C10.4165 20.1495 9.67013 20.1145 8.99915 20.0443C8.32811 19.9745 7.62702 19.8268 6.89578 19.6015C6.1648 19.3759 5.55391 19.0755 5.063 18.6998C4.57209 18.3238 4.16647 17.8085 3.84595 17.1522C3.52548 16.496 3.36519 15.7274 3.36519 14.8461C3.36519 13.6438 3.71076 12.6221 4.40196 11.7811C5.0931 10.9397 6.02951 10.5191 7.2113 10.5191C7.64217 10.5191 8.61874 10.6242 10.1412 10.8346C10.8522 10.9447 11.6386 10.9998 12.4998 10.9998C13.3614 10.9998 14.1476 10.9449 14.8586 10.8346C16.4013 10.6242 17.3776 10.5191 17.7885 10.5191C18.9702 10.5191 19.9066 10.9399 20.5978 11.7811C21.289 12.6224 21.6343 13.6438 21.6343 14.8461C21.6343 15.7276 21.474 16.4966 21.1539 17.1522Z" fill="#464E62"/>
<path d="M8.78134 12.4723C8.47581 12.1316 8.11287 11.9612 7.69211 11.9612C7.27123 11.9612 6.90825 12.1318 6.60277 12.4723C6.29746 12.8126 6.08197 13.1934 5.95684 13.6136C5.83144 14.0347 5.76892 14.4452 5.76892 14.8461C5.76892 15.2466 5.83159 15.6572 5.95684 16.0782C6.08181 16.4987 6.2972 16.8792 6.60277 17.2195C6.9084 17.5603 7.27123 17.7306 7.69211 17.7306C8.11287 17.7306 8.47597 17.5599 8.78134 17.2195C9.08676 16.8792 9.30214 16.4987 9.42727 16.0782C9.55252 15.6572 9.61519 15.2466 9.61519 14.8461C9.61519 14.4456 9.55267 14.0347 9.42727 13.6136C9.30209 13.1935 9.08691 12.813 8.78134 12.4723Z" fill="#464E62"/>
<path d="M18.3968 12.4723C18.0913 12.1316 17.7283 11.9612 17.3076 11.9612C16.8871 11.9612 16.5239 12.1318 16.2183 12.4723C15.9129 12.8126 15.6976 13.1934 15.5726 13.6136C15.4471 14.0347 15.3844 14.4452 15.3844 14.8461C15.3844 15.2466 15.4471 15.6572 15.5726 16.0782C15.6976 16.4987 15.9129 16.8792 16.2183 17.2195C16.5239 17.5603 16.8871 17.7306 17.3076 17.7306C17.7283 17.7306 18.0914 17.5599 18.3968 17.2195C18.702 16.8792 18.9175 16.4987 19.0429 16.0782C19.168 15.6572 19.2307 15.2466 19.2307 14.8461C19.2307 14.4456 19.168 14.0347 19.0429 13.6136C18.9176 13.1935 18.702 12.813 18.3968 12.4723Z" fill="#464E62"/>
</svg>
