<svg id="Capa_1" data-name="Capa 1" xmlns="http://www.w3.org/2000/svg" viewBox="0 0 95.33 79.61">
  <g>
    <path d="M30.51,36.08a25.47,25.47,0,0,0-7-1,22,22,0,0,0-8.75,1.79c2.2-8,7.48-22,18-23.51a2.49,2.49,0,0,0,2-1.8l2.3-8.23a2.51,2.51,0,0,0-.31-2A2.53,2.53,0,0,0,35.07.16,16.91,16.91,0,0,0,32.71,0C20.07,0,7.56,13.19,2.28,32.08c-3.1,11.08-4,27.73,3.63,38.22,4.27,5.87,10.5,9,18.52,9.31h.1a22.18,22.18,0,0,0,6-43.53Z"/>
    <path d="M92.47,46.56A22.23,22.23,0,0,0,79.14,36.08a25.52,25.52,0,0,0-7-1,22.12,22.12,0,0,0-8.76,1.79c2.2-8,7.49-22,18-23.51a2.52,2.52,0,0,0,2-1.8l2.3-8.23a2.52,2.52,0,0,0-.32-2A2.49,2.49,0,0,0,83.69.16,16.77,16.77,0,0,0,81.34,0C68.7,0,56.19,13.19,50.9,32.08c-3.1,11.08-4,27.73,3.63,38.22,4.27,5.87,10.51,9,18.53,9.31h.1A22.23,22.23,0,0,0,94.5,63.41,22,22,0,0,0,92.47,46.56Z"/>
  </g>
</svg>